<?xml version="1.0" encoding="UTF-8" standalone="no"?><!DOCTYPE svg PUBLIC "-//W3C//DTD SVG 1.1//EN" "http://www.w3.org/Graphics/SVG/1.1/DTD/svg11.dtd"><svg width="100%" height="100%" viewBox="0 0 183 41" version="1.1" xmlns="http://www.w3.org/2000/svg" xmlns:xlink="http://www.w3.org/1999/xlink" xml:space="preserve" xmlns:serif="http://www.serif.com/" style="fill-rule:evenodd;clip-rule:evenodd;stroke-linecap:round;stroke-linejoin:round;"><rect id="ArtBoard1" x="0" y="0" width="182.76" height="40.992" style="fill:none;"/><path d="M48.038,30.682c-0.453,-0 -0.817,-0.104 -1.091,-0.312c-0.274,-0.207 -0.439,-0.486 -0.496,-0.836c-0.056,-0.349 0.01,-0.741 0.199,-1.175l7.48,-16.576c0.245,-0.547 0.543,-0.939 0.892,-1.175c0.35,-0.237 0.751,-0.355 1.204,-0.355c0.435,0 0.827,0.118 1.176,0.355c0.35,0.236 0.647,0.628 0.893,1.175l7.508,16.576c0.208,0.434 0.284,0.831 0.227,1.19c-0.057,0.359 -0.217,0.637 -0.482,0.835c-0.264,0.199 -0.614,0.298 -1.048,0.298c-0.529,-0 -0.94,-0.128 -1.233,-0.383c-0.292,-0.255 -0.552,-0.646 -0.779,-1.175l-1.842,-4.279l1.531,0.992l-11.957,-0l1.53,-0.992l-1.814,4.279c-0.245,0.547 -0.5,0.944 -0.765,1.19c-0.264,0.245 -0.642,0.368 -1.133,0.368Zm8.132,-16.264l-3.967,9.436l-0.737,-0.907l9.464,-0l-0.709,0.907l-3.995,-9.436l-0.056,0Z" style="fill:#000c1e;fill-rule:nonzero;"/><path d="M73.425,30.739c-1.454,-0 -2.72,-0.298 -3.797,-0.893c-1.076,-0.595 -1.908,-1.44 -2.493,-2.536c-0.586,-1.095 -0.878,-2.38 -0.878,-3.853c-0,-1.115 0.165,-2.111 0.495,-2.989c0.331,-0.879 0.808,-1.625 1.431,-2.239c0.624,-0.614 1.379,-1.086 2.267,-1.416c0.888,-0.331 1.879,-0.496 2.975,-0.496c0.623,-0 1.299,0.085 2.026,0.255c0.727,0.17 1.412,0.453 2.054,0.85c0.302,0.189 0.501,0.415 0.595,0.68c0.095,0.264 0.113,0.533 0.057,0.807c-0.057,0.274 -0.175,0.51 -0.354,0.709c-0.18,0.198 -0.402,0.321 -0.666,0.368c-0.265,0.047 -0.557,-0.014 -0.879,-0.184c-0.415,-0.246 -0.84,-0.43 -1.275,-0.553c-0.434,-0.122 -0.85,-0.184 -1.246,-0.184c-0.624,0 -1.171,0.099 -1.644,0.298c-0.472,0.198 -0.873,0.481 -1.204,0.85c-0.33,0.368 -0.581,0.826 -0.751,1.374c-0.17,0.548 -0.255,1.18 -0.255,1.898c0,1.398 0.336,2.498 1.006,3.301c0.671,0.803 1.62,1.204 2.848,1.204c0.396,0 0.807,-0.056 1.232,-0.17c0.425,-0.113 0.855,-0.292 1.289,-0.538c0.322,-0.17 0.61,-0.227 0.865,-0.17c0.255,0.057 0.467,0.184 0.637,0.382c0.17,0.199 0.274,0.435 0.312,0.709c0.038,0.274 0.004,0.543 -0.099,0.807c-0.104,0.265 -0.298,0.482 -0.581,0.652c-0.624,0.378 -1.285,0.652 -1.984,0.822c-0.699,0.17 -1.36,0.255 -1.983,0.255Z" style="fill:#000c1e;fill-rule:nonzero;"/><path d="M85.099,30.739c-1.455,-0 -2.72,-0.298 -3.797,-0.893c-1.077,-0.595 -1.908,-1.44 -2.494,-2.536c-0.585,-1.095 -0.878,-2.38 -0.878,-3.853c0,-1.115 0.165,-2.111 0.496,-2.989c0.331,-0.879 0.807,-1.625 1.431,-2.239c0.623,-0.614 1.379,-1.086 2.267,-1.416c0.887,-0.331 1.879,-0.496 2.975,-0.496c0.623,-0 1.298,0.085 2.025,0.255c0.728,0.17 1.412,0.453 2.055,0.85c0.302,0.189 0.5,0.415 0.595,0.68c0.094,0.264 0.113,0.533 0.056,0.807c-0.056,0.274 -0.174,0.51 -0.354,0.709c-0.179,0.198 -0.401,0.321 -0.666,0.368c-0.264,0.047 -0.557,-0.014 -0.878,-0.184c-0.416,-0.246 -0.841,-0.43 -1.275,-0.553c-0.435,-0.122 -0.85,-0.184 -1.247,-0.184c-0.623,0 -1.171,0.099 -1.643,0.298c-0.472,0.198 -0.874,0.481 -1.204,0.85c-0.331,0.368 -0.581,0.826 -0.751,1.374c-0.17,0.548 -0.255,1.18 -0.255,1.898c-0,1.398 0.335,2.498 1.006,3.301c0.67,0.803 1.619,1.204 2.847,1.204c0.397,0 0.808,-0.056 1.233,-0.17c0.425,-0.113 0.854,-0.292 1.289,-0.538c0.321,-0.17 0.609,-0.227 0.864,-0.17c0.255,0.057 0.468,0.184 0.638,0.382c0.17,0.199 0.274,0.435 0.311,0.709c0.038,0.274 0.005,0.543 -0.099,0.807c-0.104,0.265 -0.297,0.482 -0.581,0.652c-0.623,0.378 -1.284,0.652 -1.983,0.822c-0.699,0.17 -1.36,0.255 -1.983,0.255Z" style="fill:#000c1e;fill-rule:nonzero;"/><path d="M96.687,30.739c-1.436,-0 -2.682,-0.293 -3.74,-0.879c-1.058,-0.585 -1.879,-1.421 -2.465,-2.507c-0.586,-1.086 -0.878,-2.366 -0.878,-3.839c-0,-1.115 0.165,-2.111 0.495,-2.99c0.331,-0.878 0.808,-1.634 1.431,-2.266c0.624,-0.633 1.37,-1.115 2.239,-1.445c0.869,-0.331 1.841,-0.496 2.918,-0.496c1.436,-0 2.682,0.293 3.74,0.878c1.058,0.586 1.88,1.417 2.465,2.493c0.586,1.077 0.879,2.352 0.879,3.826c-0,1.114 -0.166,2.115 -0.496,3.003c-0.331,0.888 -0.808,1.648 -1.431,2.281c-0.624,0.633 -1.37,1.114 -2.239,1.445c-0.868,0.33 -1.841,0.496 -2.918,0.496Zm0,-2.692c0.699,-0 1.313,-0.17 1.842,-0.51c0.529,-0.34 0.94,-0.845 1.232,-1.516c0.293,-0.67 0.439,-1.506 0.439,-2.507c0,-1.512 -0.321,-2.64 -0.963,-3.386c-0.642,-0.746 -1.492,-1.12 -2.55,-1.12c-0.699,0 -1.313,0.166 -1.842,0.496c-0.529,0.331 -0.939,0.831 -1.232,1.502c-0.293,0.671 -0.439,1.506 -0.439,2.508c-0,1.492 0.321,2.62 0.963,3.385c0.642,0.765 1.492,1.148 2.55,1.148Z" style="fill:#000c1e;fill-rule:nonzero;"/><path d="M109.721,30.739c-1.153,-0 -2.107,-0.213 -2.862,-0.638c-0.756,-0.425 -1.318,-1.062 -1.686,-1.912c-0.368,-0.85 -0.552,-1.908 -0.552,-3.174l-0,-6.857c-0,-0.604 0.151,-1.053 0.453,-1.345c0.302,-0.293 0.737,-0.44 1.303,-0.44c0.567,0 1.006,0.147 1.318,0.44c0.311,0.292 0.467,0.741 0.467,1.345l0,6.914c0,0.982 0.199,1.709 0.595,2.182c0.397,0.472 1.03,0.708 1.899,0.708c0.944,-0 1.719,-0.326 2.323,-0.978c0.604,-0.651 0.907,-1.515 0.907,-2.592l-0,-6.234c-0,-0.604 0.151,-1.053 0.453,-1.345c0.302,-0.293 0.737,-0.44 1.303,-0.44c0.567,0 1.006,0.147 1.318,0.44c0.312,0.292 0.467,0.741 0.467,1.345l0,10.711c0,1.209 -0.576,1.813 -1.728,1.813c-0.548,-0 -0.973,-0.156 -1.275,-0.468c-0.302,-0.311 -0.453,-0.76 -0.453,-1.345l-0,-2.154l0.396,0.85c-0.396,1.02 -0.996,1.804 -1.799,2.352c-0.803,0.548 -1.752,0.822 -2.847,0.822Z" style="fill:#000c1e;fill-rule:nonzero;"/><path d="M120.884,30.682c-0.567,-0 -1.001,-0.156 -1.303,-0.468c-0.302,-0.311 -0.454,-0.76 -0.454,-1.345l0,-10.711c0,-0.585 0.152,-1.029 0.454,-1.331c0.302,-0.302 0.727,-0.454 1.275,-0.454c0.548,0 0.973,0.152 1.275,0.454c0.302,0.302 0.453,0.746 0.453,1.331l0,1.927l-0.312,-0.708c0.416,-1.001 1.063,-1.762 1.941,-2.281c0.879,-0.52 1.875,-0.779 2.99,-0.779c1.114,-0 2.03,0.208 2.748,0.623c0.718,0.416 1.256,1.044 1.615,1.884c0.359,0.841 0.538,1.903 0.538,3.188l0,6.857c0,0.585 -0.151,1.034 -0.453,1.345c-0.302,0.312 -0.737,0.468 -1.303,0.468c-0.567,-0 -1.006,-0.156 -1.318,-0.468c-0.312,-0.311 -0.467,-0.76 -0.467,-1.345l-0,-6.687c-0,-1.077 -0.203,-1.861 -0.61,-2.352c-0.406,-0.491 -1.034,-0.737 -1.884,-0.737c-1.039,0 -1.865,0.326 -2.479,0.978c-0.614,0.652 -0.921,1.516 -0.921,2.593l0,6.205c0,1.209 -0.595,1.813 -1.785,1.813Z" style="fill:#000c1e;fill-rule:nonzero;"/><path d="M140.633,30.739c-1.228,-0 -2.253,-0.208 -3.074,-0.624c-0.822,-0.415 -1.431,-1.024 -1.828,-1.827c-0.397,-0.803 -0.595,-1.799 -0.595,-2.989l0,-6.036l-1.473,0c-0.454,0 -0.803,-0.118 -1.049,-0.354c-0.245,-0.236 -0.368,-0.562 -0.368,-0.977c-0,-0.435 0.123,-0.765 0.368,-0.992c0.246,-0.227 0.595,-0.34 1.049,-0.34l1.473,0l0,-2.578c0,-0.586 0.156,-1.03 0.468,-1.332c0.311,-0.302 0.75,-0.453 1.317,-0.453c0.567,-0 1.001,0.151 1.303,0.453c0.303,0.302 0.454,0.746 0.454,1.332l-0,2.578l3.003,0c0.453,0 0.803,0.113 1.048,0.34c0.246,0.227 0.369,0.557 0.369,0.992c-0,0.415 -0.123,0.741 -0.369,0.977c-0.245,0.236 -0.595,0.354 -1.048,0.354l-3.003,0l-0,5.837c-0,0.907 0.198,1.587 0.595,2.04c0.396,0.454 1.039,0.68 1.926,0.68c0.322,0 0.605,-0.028 0.85,-0.085c0.246,-0.056 0.463,-0.094 0.652,-0.113c0.227,-0.019 0.416,0.052 0.567,0.212c0.151,0.161 0.227,0.487 0.227,0.978c-0,0.378 -0.062,0.713 -0.185,1.006c-0.122,0.293 -0.344,0.496 -0.666,0.609c-0.245,0.076 -0.566,0.146 -0.963,0.212c-0.397,0.067 -0.746,0.1 -1.048,0.1Z" style="fill:#000c1e;fill-rule:nonzero;"/><path d="M150.436,30.739c-1.568,-0 -2.918,-0.293 -4.051,-0.879c-1.134,-0.585 -2.007,-1.416 -2.621,-2.493c-0.614,-1.077 -0.921,-2.352 -0.921,-3.825c-0,-1.436 0.297,-2.692 0.892,-3.769c0.595,-1.076 1.417,-1.921 2.465,-2.535c1.049,-0.614 2.243,-0.921 3.585,-0.921c0.982,-0 1.865,0.16 2.649,0.481c0.784,0.322 1.454,0.784 2.012,1.389c0.557,0.604 0.982,1.336 1.275,2.196c0.292,0.859 0.439,1.827 0.439,2.904c-0,0.34 -0.118,0.6 -0.354,0.779c-0.237,0.18 -0.572,0.269 -1.006,0.269l-9.095,0l-0,-2.04l7.961,0l-0.453,0.425c-0,-0.869 -0.128,-1.596 -0.383,-2.181c-0.255,-0.586 -0.623,-1.035 -1.105,-1.346c-0.481,-0.312 -1.081,-0.468 -1.799,-0.468c-0.793,0 -1.468,0.184 -2.026,0.553c-0.557,0.368 -0.982,0.887 -1.275,1.558c-0.292,0.671 -0.439,1.469 -0.439,2.394l0,0.199c0,1.548 0.364,2.705 1.091,3.47c0.727,0.765 1.799,1.148 3.216,1.148c0.491,-0 1.044,-0.061 1.657,-0.184c0.614,-0.123 1.195,-0.335 1.743,-0.638c0.397,-0.226 0.746,-0.326 1.048,-0.297c0.303,0.028 0.543,0.137 0.723,0.326c0.179,0.189 0.288,0.42 0.326,0.694c0.037,0.274 -0.014,0.552 -0.156,0.836c-0.142,0.283 -0.383,0.529 -0.723,0.736c-0.661,0.416 -1.421,0.723 -2.281,0.921c-0.859,0.198 -1.657,0.298 -2.394,0.298Z" style="fill:#000c1e;fill-rule:nonzero;"/><path d="M162.875,30.739c-1.209,-0 -2.272,-0.293 -3.188,-0.879c-0.916,-0.585 -1.629,-1.421 -2.139,-2.507c-0.51,-1.086 -0.765,-2.366 -0.765,-3.839c0,-1.493 0.255,-2.772 0.765,-3.84c0.51,-1.067 1.223,-1.893 2.139,-2.479c0.916,-0.585 1.979,-0.878 3.188,-0.878c1.152,-0 2.158,0.283 3.017,0.85c0.86,0.566 1.441,1.313 1.743,2.238l-0.312,0l0,-7.367c0,-0.585 0.151,-1.029 0.454,-1.331c0.302,-0.303 0.736,-0.454 1.303,-0.454c0.567,0 1.006,0.151 1.317,0.454c0.312,0.302 0.468,0.746 0.468,1.331l-0,16.831c-0,0.585 -0.151,1.034 -0.453,1.345c-0.303,0.312 -0.737,0.468 -1.304,0.468c-0.566,-0 -1.001,-0.156 -1.303,-0.468c-0.302,-0.311 -0.453,-0.76 -0.453,-1.345l-0,-2.21l0.311,0.85c-0.283,0.982 -0.859,1.766 -1.728,2.351c-0.869,0.586 -1.889,0.879 -3.06,0.879Zm0.992,-2.692c0.698,-0 1.312,-0.17 1.841,-0.51c0.529,-0.34 0.94,-0.845 1.233,-1.516c0.293,-0.67 0.439,-1.506 0.439,-2.507c-0,-1.512 -0.321,-2.64 -0.963,-3.386c-0.643,-0.746 -1.493,-1.12 -2.55,-1.12c-0.699,0 -1.313,0.166 -1.842,0.496c-0.529,0.331 -0.94,0.831 -1.233,1.502c-0.292,0.671 -0.439,1.506 -0.439,2.508c0,1.492 0.321,2.62 0.963,3.385c0.643,0.765 1.493,1.148 2.551,1.148Z" style="fill:#000c1e;fill-rule:nonzero;"/><g><rect x="13.655" y="10.253" width="27.314" height="20.485" style="fill:none;"/><rect x="0" y="0" width="182.76" height="40.992" style="fill:none;"/><path d="M27.312,34.836l0,-19.12" style="fill:none;fill-rule:nonzero;stroke:#000;stroke-width:3px;"/><path d="M32.775,22.545l2.731,2.731l5.463,-5.463" style="fill:none;fill-rule:nonzero;stroke:#2b7fff;stroke-width:3px;"/><path d="M40.969,14.35l-0,-2.731c-0,-0.749 -0.617,-1.366 -1.366,-1.366l-6.828,0c-2.997,0 -5.463,2.466 -5.463,5.463c0,-2.997 -2.466,-5.463 -5.463,-5.463l-6.828,0c-0.749,0 -1.366,0.617 -1.366,1.366l0,17.754c0,0.749 0.617,1.366 1.366,1.366l8.194,-0c2.248,-0 4.097,1.849 4.097,4.097c0,-2.248 1.849,-4.097 4.097,-4.097l8.194,-0c0.749,-0 1.366,-0.617 1.366,-1.366l-0,-1.775" style="fill:none;fill-rule:nonzero;stroke:#000;stroke-width:3px;"/></g></svg>