<?xml version="1.0" encoding="UTF-8" standalone="no"?>
<!DOCTYPE svg PUBLIC "-//W3C//DTD SVG 1.1//EN" "http://www.w3.org/Graphics/SVG/1.1/DTD/svg11.dtd">
<svg width="100%" height="100%" viewBox="0 0 1024 1024" version="1.1" xmlns="http://www.w3.org/2000/svg" xmlns:xlink="http://www.w3.org/1999/xlink" xml:space="preserve" xmlns:serif="http://www.serif.com/" style="fill-rule:evenodd;clip-rule:evenodd;stroke-linecap:round;stroke-linejoin:round;">
    <g transform="matrix(1,0,0,1,-188,-675)">
        <g id="ArtBoard2" transform="matrix(3.06587,0,0,3.06587,-388.383,-30.1497)">
            <rect x="188" y="230" width="334" height="334" style="fill:white;"/>
            <g transform="matrix(4.83273,0,0,4.83273,-732.935,-862.597)">
                <g transform="matrix(1.85604,0,0,1.85604,202.846,241.151)">
                    <path d="M12,21L12,7" style="fill:none;fill-rule:nonzero;stroke:rgb(0,12,30);stroke-width:2.2px;"/>
                </g>
                <g transform="matrix(1.85604,0,0,1.85604,202.846,241.151)">
                    <path d="M16,12L18,14L22,10" style="fill:none;fill-rule:nonzero;stroke:rgb(43,127,255);stroke-width:2.2px;"/>
                </g>
                <g transform="matrix(1.85604,0,0,1.85604,202.846,241.151)">
                    <path d="M22,6L22,4C22,3.451 21.549,3 21,3L16,3C13.806,3 12,4.806 12,7C12,4.806 10.194,3 8,3L3,3C2.451,3 2,3.451 2,4L2,17C2,17.549 2.451,18 3,18L9,18C10.646,18 12,19.354 12,21C12,19.354 13.354,18 15,18L21,18C21.549,18 22,17.549 22,17L22,15.7" style="fill:none;fill-rule:nonzero;stroke:rgb(0,12,30);stroke-width:2.2px;"/>
                </g>
            </g>
        </g>
    </g>
</svg>
